<?xml version="1.0" standalone="no"?>
<!DOCTYPE svg PUBLIC "-//W3C//DTD SVG 20010904//EN"
 "http://www.w3.org/TR/2001/REC-SVG-20010904/DTD/svg10.dtd">
<svg version="1.0" xmlns="http://www.w3.org/2000/svg"
 width="230.000000pt" height="230.000000pt" viewBox="0 0 230.000000 230.000000"
 preserveAspectRatio="xMidYMid meet">
<metadata>
Created by potrace 1.11, written by Peter Selinger 2001-2013
</metadata>
<g transform="translate(0.000000,230.000000) scale(0.100000,-0.100000)"
fill="#000000" stroke="none">
<path d="M1950 1540 c-74 -16 -178 -41 -230 -57 -108 -33 -431 -155 -425 -161
2 -2 27 1 57 7 29 6 76 13 103 16 28 3 95 12 150 21 156 24 296 29 320 11 18
-14 18 -17 5 -41 -7 -15 -34 -43 -58 -63 -45 -37 -216 -133 -237 -133 -6 0
-31 13 -56 28 -69 44 -208 98 -326 128 -133 33 -336 41 -448 18 -303 -63 -588
-260 -774 -536 l-32 -48 68 -1 c37 0 174 -2 304 -5 l237 -4 36 77 c76 159 178
269 316 338 92 46 119 48 216 16 73 -25 174 -78 174 -91 0 -3 -28 -23 -63 -44
-34 -21 -98 -62 -142 -90 -44 -29 -101 -65 -127 -81 -44 -28 -64 -50 -35 -40
6 2 23 6 37 9 34 6 350 67 375 73 88 19 82 21 114 -49 17 -36 33 -76 36 -89
l6 -24 189 -2 c105 -1 190 0 190 2 0 9 -34 96 -52 134 -21 43 -71 113 -114
160 -13 14 -22 26 -21 27 1 1 69 43 151 93 226 139 345 233 385 305 68 120
-47 153 -329 96z"/>
</g>
</svg>
